<svg width="32" height="32" viewBox="0 0 32 32" fill="none" xmlns="http://www.w3.org/2000/svg">
<path d="M18.1718 31.8025H13.104C10.1591 31.8025 7.33472 30.6256 5.25232 28.5305C3.16992 26.4355 2.00003 23.594 2.00003 20.6312V15.5355C1.99396 13.0351 2.82414 10.6054 4.35698 8.63716C5.88982 6.66894 8.0362 5.27671 10.4508 4.68445C10.5174 4.6683 10.5854 4.65906 10.6539 4.65684L20.1692 4.56299C20.2309 4.56302 20.2924 4.56856 20.353 4.57955C22.8659 5.09334 25.1254 6.46418 26.7496 8.4604C28.3739 10.4566 29.2632 12.9558 29.2675 15.5355V20.6312C29.2675 23.5926 28.0988 26.4328 26.0181 28.5276C23.9375 30.6224 21.1153 31.8003 18.1718 31.8025V31.8025ZM13.0931 7.489C10.9491 7.50293 8.89394 8.35208 7.3591 9.85814C5.82426 11.3642 4.92916 13.41 4.86179 15.5659C4.86179 15.6349 4.86179 15.7039 4.86179 15.7729V20.4076C4.86143 21.5287 5.08061 22.6389 5.5068 23.6747C5.93298 24.7106 6.55782 25.6518 7.34564 26.4447C8.13346 27.2375 9.0688 27.8665 10.0983 28.2956C11.1277 28.7247 12.2312 28.9455 13.3455 28.9455H17.9522C19.0666 28.9455 20.17 28.7247 21.1995 28.2956C22.2289 27.8665 23.1643 27.2375 23.9521 26.4447C24.7399 25.6518 25.3648 24.7106 25.7909 23.6747C26.2171 22.6389 26.4363 21.5287 26.436 20.4076V15.7729C26.4335 14.1338 25.9631 12.5298 25.0808 11.1518C24.1985 9.77374 22.9413 8.67967 21.4588 7.99968C20.6034 7.61337 19.6745 7.41932 18.737 7.43104L13.0931 7.489Z" fill="#00296B"/>
<path d="M14.9697 27.521C13.3878 27.5413 11.8338 27.1013 10.4946 26.254C10.2081 26.0678 9.93323 25.8641 9.67152 25.644L9.58095 25.5694C9.45409 25.4819 9.35049 25.3644 9.27921 25.2273C9.20794 25.0901 9.17118 24.9375 9.17214 24.7827C9.1724 24.606 9.22082 24.4328 9.31214 24.2819C9.40345 24.1309 9.53416 24.0081 9.69004 23.9267C9.84592 23.8453 10.021 23.8084 10.1963 23.8202C10.3715 23.8319 10.5402 23.8918 10.684 23.9932C10.7306 24.0264 10.7992 24.0816 10.887 24.1533C12.7335 25.6798 15.0959 26 17.9083 25.1029L18.0509 25.0588C20.4545 24.25 22.323 22.533 23.0364 20.4958C23.083 20.3633 23.1241 20.2198 23.1626 20.0928C23.2229 19.8672 23.3628 19.6713 23.5561 19.5417C23.7493 19.412 23.9829 19.3575 24.2131 19.3883C24.4434 19.419 24.6547 19.5329 24.8077 19.7087C24.9607 19.8845 25.0449 20.1103 25.0448 20.344C25.0448 20.4297 25.0338 20.5151 25.0118 20.598C24.2326 23.4798 21.7194 25.909 18.4872 26.9469C17.3504 27.3163 16.1643 27.5099 14.9697 27.521V27.521Z" fill="#00296B"/>
<path d="M15.4883 2.13654C16.005 2.12563 16.5148 2.25821 16.9616 2.51971C17.4083 2.78121 17.7748 3.16152 18.0208 3.61887C18.1131 3.81061 18.2568 3.97264 18.4357 4.08675C18.6145 4.20085 18.8215 4.26252 19.0332 4.26481H19.9908C20.0688 4.26482 20.1458 4.24684 20.2158 4.21225C20.2858 4.17766 20.3471 4.12737 20.3948 4.06526C20.4425 4.00315 20.4754 3.93086 20.491 3.85396C20.5065 3.77705 20.5044 3.69758 20.4847 3.62163C19.9633 1.54858 17.9247 0 15.4883 0C12.9421 0 10.8239 1.68936 10.4288 3.90319C10.4208 3.94733 10.4225 3.9927 10.4338 4.03611C10.4451 4.07951 10.4657 4.11989 10.4943 4.15438C10.5228 4.18887 10.5585 4.21664 10.5989 4.23572C10.6392 4.2548 10.6833 4.26473 10.7279 4.26481H11.9433C12.1551 4.26252 12.3621 4.20085 12.5409 4.08675C12.7198 3.97264 12.8635 3.81061 12.9558 3.61887C13.2018 3.16152 13.5683 2.78121 14.015 2.51971C14.4618 2.25821 14.9715 2.12563 15.4883 2.13654V2.13654Z" fill="#00296B"/>
</svg>
